<?xml version="1.0" encoding="utf-8"?>
<!-- Generator: Adobe Illustrator 17.0.0, SVG Export Plug-In . SVG Version: 6.00 Build 0)  -->
<!DOCTYPE svg PUBLIC "-//W3C//DTD SVG 1.1//EN" "http://www.w3.org/Graphics/SVG/1.1/DTD/svg11.dtd">
<svg version="1.1" id="Camada_1" xmlns="http://www.w3.org/2000/svg" xmlns:xlink="http://www.w3.org/1999/xlink" x="0px" y="0px"
	 width="40px" height="40px" viewBox="0 0 40 40" enable-background="new 0 0 40 40" xml:space="preserve">
<rect x="0.5" y="0.5" fill="#FFFFFF" fill-opacity="0" width="33" height="39.5"/>
<g>
	
		<linearGradient id="SVGID_1_" gradientUnits="userSpaceOnUse" x1="-262.0522" y1="-713.454" x2="-243.0217" y2="-713.454" gradientTransform="matrix(0.9999 0.001 0.001 -0.9999 278.2502 -697.1242)">
		<stop  offset="0" style="stop-color:#2A2A60"/>
		<stop  offset="0.5" style="stop-color:#63348B"/>
		<stop  offset="0.6533" style="stop-color:#623389"/>
		<stop  offset="0.7652" style="stop-color:#5C2F83"/>
		<stop  offset="0.864" style="stop-color:#532C78"/>
		<stop  offset="0.9546" style="stop-color:#45276A"/>
		<stop  offset="1" style="stop-color:#402562"/>
	</linearGradient>
	<path fill="url(#SVGID_1_)" d="M17.915,12.476c0,0,1.616,1.635,11.607,2.543c2.234,0.202,3.702,0.37,4.932,0.997
		c0,0,0.746,1.582-2.181,1.827c-2.927,0.245-7.388,1.685-7.388,1.685s-5.612-0.402-6.083-0.601
		c-0.471-0.199-2.678-0.648-3.222-2.931C15.036,13.714,17.915,12.476,17.915,12.476z"/>
	
		<linearGradient id="SVGID_2_" gradientUnits="userSpaceOnUse" x1="-262.0522" y1="-713.454" x2="-243.0217" y2="-713.454" gradientTransform="matrix(0.9999 0.001 0.001 -0.9999 278.2502 -697.1242)">
		<stop  offset="0" style="stop-color:#20274B"/>
		<stop  offset="0.0903" style="stop-color:#342956;stop-opacity:0.9097"/>
		<stop  offset="0.2646" style="stop-color:#522C68;stop-opacity:0.7354"/>
		<stop  offset="0.4422" style="stop-color:#6A3077;stop-opacity:0.5578"/>
		<stop  offset="0.6223" style="stop-color:#7F3182;stop-opacity:0.3777"/>
		<stop  offset="0.8062" style="stop-color:#8B3188;stop-opacity:0.1938"/>
		<stop  offset="1" style="stop-color:#8F328A;stop-opacity:0"/>
	</linearGradient>
	<path fill="url(#SVGID_2_)" d="M17.915,12.476c0,0,1.616,1.639,11.607,2.543c2.22,0.201,3.702,0.37,4.932,0.997
		c0,0,0.746,1.582-2.181,1.827c-2.927,0.245-7.388,1.685-7.388,1.685s-5.612-0.402-6.083-0.601
		c-0.471-0.199-2.678-0.648-3.222-2.931C15.036,13.714,17.915,12.476,17.915,12.476z"/>
	
		<linearGradient id="SVGID_3_" gradientUnits="userSpaceOnUse" x1="-262.0512" y1="-713.7868" x2="-246.2607" y2="-713.7868" gradientTransform="matrix(0.9999 0.001 0.001 -0.9999 278.2502 -697.1242)">
		<stop  offset="0" style="stop-color:#8F328A;stop-opacity:0"/>
		<stop  offset="0.0011" style="stop-color:#8F328A;stop-opacity:0.0011"/>
		<stop  offset="0.2186" style="stop-color:#98388C;stop-opacity:0.2186"/>
		<stop  offset="0.4922" style="stop-color:#9D3A8E;stop-opacity:0.4922"/>
		<stop  offset="1" style="stop-color:#9F3B8E"/>
	</linearGradient>
	<path opacity="0.43" fill="url(#SVGID_3_)" enable-background="new    " d="M22.723,17.294c-5.953-0.452-5.356-1.692-5.356-1.692
		s-0.295-1.198-0.537-2.461c-0.75,0.585-1.56,1.549-1.25,2.856c0.544,2.283,2.75,2.732,3.222,2.931
		c0.471,0.199,6.083,0.601,6.083,0.601s3.565-1.151,6.413-1.57C29.175,17.712,26.111,17.552,22.723,17.294z"/>
	
		<linearGradient id="SVGID_4_" gradientUnits="userSpaceOnUse" x1="-262.9375" y1="-707.1749" x2="-237.5752" y2="-707.1749" gradientTransform="matrix(0.9999 0.001 0.001 -0.9999 278.2502 -697.1242)">
		<stop  offset="0" style="stop-color:#E8317C;stop-opacity:0"/>
		<stop  offset="0.0586" style="stop-color:#E8347B;stop-opacity:0.1172"/>
		<stop  offset="0.2565" style="stop-color:#E8397A;stop-opacity:0.513"/>
		<stop  offset="0.5" style="stop-color:#E83A79"/>
	</linearGradient>
	<path fill="url(#SVGID_4_)" d="M39.688,0.5c0,0,2.771,6.512-8.246,10.112c-11.815,3.862-15.635,7.133-11.717,8.352
		c0,0-5.904-0.482-5.005-5.988c0.53-3.245,3.167-4.416,6.391-5.661C21.111,7.317,31.946,3.996,39.688,0.5z"/>
	
		<linearGradient id="SVGID_5_" gradientUnits="userSpaceOnUse" x1="-254.4778" y1="-733.1923" x2="-254.4778" y2="-723.0663" gradientTransform="matrix(0.9999 0.001 0.001 -0.9999 278.2502 -697.1242)">
		<stop  offset="0" style="stop-color:#DB205E"/>
		<stop  offset="0.5" style="stop-color:#A02265"/>
		<stop  offset="1" style="stop-color:#A02265"/>
	</linearGradient>
	<path fill="url(#SVGID_5_)" d="M25.322,25.618c0,0-4.703,4.116-0.551,10.023c0.041,0.059-0.031,0.131-0.089,0.088
		c-0.78-0.578-1.973-1.665-2.895-2.672C18.98,29.996,22.959,26.928,25.322,25.618z"/>
	
		<linearGradient id="SVGID_6_" gradientUnits="userSpaceOnUse" x1="-254.4266" y1="-733.1923" x2="-254.4266" y2="-723.0663" gradientTransform="matrix(0.9999 0.001 0.001 -0.9999 278.2502 -697.1242)">
		<stop  offset="0" style="stop-color:#DB205E"/>
		<stop  offset="0.9951" style="stop-color:#35193F"/>
	</linearGradient>
	<path fill="url(#SVGID_6_)" d="M25.322,25.618c0,0-4.703,4.116-0.551,10.023c0.041,0.059-0.031,0.131-0.089,0.088
		c-0.78-0.578-2.574-2.044-3.169-3.149C19.543,28.923,22.959,26.928,25.322,25.618z"/>
	
		<linearGradient id="SVGID_7_" gradientUnits="userSpaceOnUse" x1="-258.5549" y1="-721.9291" x2="-240.6961" y2="-721.9291" gradientTransform="matrix(0.9999 0.001 0.001 -0.9999 278.2502 -697.1242)">
		<stop  offset="0" style="stop-color:#E8317C"/>
		<stop  offset="0.5" style="stop-color:#DB205E"/>
		<stop  offset="1" style="stop-color:#A02265"/>
	</linearGradient>
	<path fill="url(#SVGID_7_)" d="M36.782,19.765c0.614-2.462-2.55-3.857-2.55-3.857c1.605,1.732-4.883,0.998-10.967,4.475
		c-4.316,2.466-4.268,6.483-4.268,6.483l0.007,0.008c-0.118,3.619,2.783,6.185,2.783,6.185
		C18.974,23.431,35.63,24.297,36.782,19.765z"/>
	
		<linearGradient id="SVGID_8_" gradientUnits="userSpaceOnUse" x1="-258.5549" y1="-721.9291" x2="-240.6713" y2="-721.9291" gradientTransform="matrix(0.9999 0.001 0.001 -0.9999 278.2502 -697.1242)">
		<stop  offset="0" style="stop-color:#E8317C;stop-opacity:0"/>
		<stop  offset="0.0586" style="stop-color:#E8347B;stop-opacity:0.1172"/>
		<stop  offset="0.2565" style="stop-color:#E8397A;stop-opacity:0.513"/>
		<stop  offset="0.5" style="stop-color:#E83A79"/>
		<stop  offset="0.6043" style="stop-color:#E53978;stop-opacity:0.7915"/>
		<stop  offset="0.7133" style="stop-color:#DA3474;stop-opacity:0.5733"/>
		<stop  offset="0.8246" style="stop-color:#C72F70;stop-opacity:0.3508"/>
		<stop  offset="0.9367" style="stop-color:#B02769;stop-opacity:0.1265"/>
		<stop  offset="1" style="stop-color:#A02265;stop-opacity:0"/>
	</linearGradient>
	<path fill="url(#SVGID_8_)" d="M36.782,19.765c0.722-2.462-2.55-3.857-2.55-3.857c1.605,1.732-4.883,0.998-10.967,4.475
		c-4.316,2.466-4.268,6.483-4.268,6.483l0.007,0.008c-0.118,3.619,2.783,6.185,2.783,6.185
		C18.974,23.431,35.179,24.341,36.782,19.765z"/>
	
		<linearGradient id="SVGID_9_" gradientUnits="userSpaceOnUse" x1="-260.1984" y1="-726.315" x2="-250.8833" y2="-710.1809" gradientTransform="matrix(0.9999 0.0025 0.0025 -0.9999 277.6487 -695.2349)">
		<stop  offset="0" style="stop-color:#E8317C;stop-opacity:0"/>
		<stop  offset="0.0597" style="stop-color:#D12C75;stop-opacity:0.2294"/>
		<stop  offset="0.1429" style="stop-color:#B6266C;stop-opacity:0.5492"/>
		<stop  offset="0.2127" style="stop-color:#A62266;stop-opacity:0.8175"/>
		<stop  offset="0.2602" style="stop-color:#A02265"/>
	</linearGradient>
	<path opacity="0.25" fill="url(#SVGID_9_)" enable-background="new    " d="M39.692,0.501L39.692,0.501
		c0,0-0.437,3.932-13.071,7.782c-9.981,3.042-12.687,7.114-10.389,9.28c0.78,0.633,1.693,0.979,2.389,1.165
		c0.337,0.084,0.698,0.154,1.083,0.208c-3.916-1.225-0.092-4.491,11.729-8.335C42.455,7.017,39.692,0.501,39.692,0.501z"/>
	
		<linearGradient id="SVGID_10_" gradientUnits="userSpaceOnUse" x1="-258.5558" y1="-721.93" x2="-241.6086" y2="-721.93" gradientTransform="matrix(0.9999 0.001 0.001 -0.9999 278.2502 -697.1242)">
		<stop  offset="0" style="stop-color:#E8317C;stop-opacity:0"/>
		<stop  offset="0.2294" style="stop-color:#D12C75;stop-opacity:0.2294"/>
		<stop  offset="0.5492" style="stop-color:#B6266C;stop-opacity:0.5492"/>
		<stop  offset="0.8175" style="stop-color:#A62266;stop-opacity:0.8175"/>
		<stop  offset="1" style="stop-color:#A02265"/>
	</linearGradient>
	<path fill="url(#SVGID_10_)" d="M34.206,19.538c2.257-0.73,1.701-2.158,1.643-2.293c-0.726-0.921-1.618-1.337-1.618-1.337
		c1.605,1.732-4.883,0.998-10.967,4.475c-4.316,2.466-4.268,6.483-4.268,6.483l0.007,0.008c-0.118,3.619,2.783,6.185,2.783,6.185
		C13.722,23.843,31.762,20.329,34.206,19.538z"/>
	
		<linearGradient id="SVGID_11_" gradientUnits="userSpaceOnUse" x1="-257.8732" y1="-721.9282" x2="-240.6707" y2="-721.9282" gradientTransform="matrix(0.9999 0.001 0.001 -0.9999 278.2502 -697.1242)">
		<stop  offset="0" style="stop-color:#E8317C;stop-opacity:0"/>
		<stop  offset="0.0103" style="stop-color:#E93F81;stop-opacity:0.0205"/>
		<stop  offset="0.0616" style="stop-color:#EE78A0;stop-opacity:0.1233"/>
		<stop  offset="0.1154" style="stop-color:#F3A1BC;stop-opacity:0.2308"/>
		<stop  offset="0.1705" style="stop-color:#F7C2D4;stop-opacity:0.3411"/>
		<stop  offset="0.2274" style="stop-color:#FAD9E4;stop-opacity:0.4548"/>
		<stop  offset="0.2865" style="stop-color:#FCEBF2;stop-opacity:0.5731"/>
		<stop  offset="0.3489" style="stop-color:#FEF6F9;stop-opacity:0.6978"/>
		<stop  offset="0.4167" style="stop-color:#FFFEFE;stop-opacity:0.8334"/>
		<stop  offset="0.5" style="stop-color:#FFFFFF"/>
		<stop  offset="0.5606" style="stop-color:#FDFCFD;stop-opacity:0.8789"/>
		<stop  offset="0.624" style="stop-color:#F8F0F5;stop-opacity:0.752"/>
		<stop  offset="0.6887" style="stop-color:#EEDEE7;stop-opacity:0.6225"/>
		<stop  offset="0.7544" style="stop-color:#E1C4D3;stop-opacity:0.4912"/>
		<stop  offset="0.8208" style="stop-color:#D2A3BA;stop-opacity:0.3584"/>
		<stop  offset="0.8878" style="stop-color:#C0799A;stop-opacity:0.2245"/>
		<stop  offset="0.9539" style="stop-color:#AE4979;stop-opacity:0.0921"/>
		<stop  offset="1" style="stop-color:#A02265;stop-opacity:0"/>
	</linearGradient>
	<path opacity="0.17" fill="url(#SVGID_11_)" enable-background="new    " d="M34.232,15.908c0,0,0.892,0.416,1.618,1.337
		c0.058,0.135,0.613,1.563-1.643,2.293c-2.445,0.791-20.62,3.937-12.419,13.52c-2.813-9.627,13.392-8.718,14.996-13.294
		C37.504,17.302,34.232,15.908,34.232,15.908z"/>
	
		<linearGradient id="SVGID_12_" gradientUnits="userSpaceOnUse" x1="-271.2203" y1="-707.1837" x2="-246.1704" y2="-707.1837" gradientTransform="matrix(0.9999 0.001 0.001 -0.9999 278.2502 -697.1242)">
		<stop  offset="0" style="stop-color:#E8317C;stop-opacity:0"/>
		<stop  offset="0.1076" style="stop-color:#D12C75;stop-opacity:0.2294"/>
		<stop  offset="0.2575" style="stop-color:#B6266C;stop-opacity:0.5492"/>
		<stop  offset="0.3833" style="stop-color:#A62266;stop-opacity:0.8175"/>
		<stop  offset="0.4689" style="stop-color:#A02265"/>
	</linearGradient>
	<path fill="url(#SVGID_12_)" d="M26.632,8.309c12.629-3.868,13.06-7.801,13.06-7.801c-6.898,3.24-18.577,6.817-18.577,6.817
		c-3.359,1.301-5.861,2.416-6.391,5.661c-0.899,5.506,5.005,5.988,5.005,5.988C12.983,18.044,13.588,12.305,26.632,8.309z"/>
</g>
</svg>
