<?xml version="1.0" encoding="utf-8"?>
<!-- Generator: Adobe Illustrator 17.0.0, SVG Export Plug-In . SVG Version: 6.00 Build 0)  -->
<!DOCTYPE svg PUBLIC "-//W3C//DTD SVG 1.1//EN" "http://www.w3.org/Graphics/SVG/1.1/DTD/svg11.dtd">
<svg version="1.1" id="Camada_1" xmlns="http://www.w3.org/2000/svg" xmlns:xlink="http://www.w3.org/1999/xlink" x="0px" y="0px"
	 width="40px" height="40px" viewBox="0 0 40 40" enable-background="new 0 0 40 40" xml:space="preserve">
<rect x="0.5" y="0.5" opacity="0" fill="#FFFFFF" width="39.5" height="39"/>
<g>
	
		<linearGradient id="SVGID_1_" gradientUnits="userSpaceOnUse" x1="35.9083" y1="85.3951" x2="57.5314" y2="85.3951" gradientTransform="matrix(0.9999 0.001 0.001 -0.9999 -26.3439 102.9367)">
		<stop  offset="0" style="stop-color:#2A2A60"/>
		<stop  offset="0.5" style="stop-color:#63348B"/>
		<stop  offset="0.6533" style="stop-color:#623389"/>
		<stop  offset="0.7652" style="stop-color:#5C2F83"/>
		<stop  offset="0.864" style="stop-color:#532C78"/>
		<stop  offset="0.9546" style="stop-color:#45276A"/>
		<stop  offset="1" style="stop-color:#402562"/>
	</linearGradient>
	<path fill="url(#SVGID_1_)" d="M12.378,13.586c0,0,1.836,1.858,13.188,2.889c2.538,0.23,4.206,0.42,5.604,1.133
		c0,0,0.848,1.798-2.478,2.076c-3.326,0.278-8.395,1.915-8.395,1.915s-6.377-0.457-6.912-0.683c-0.535-0.226-3.043-0.736-3.661-3.33
		C9.107,14.992,12.378,13.586,12.378,13.586z"/>
	
		<linearGradient id="SVGID_2_" gradientUnits="userSpaceOnUse" x1="35.9083" y1="85.3951" x2="57.5314" y2="85.3951" gradientTransform="matrix(0.9999 0.001 0.001 -0.9999 -26.3439 102.9367)">
		<stop  offset="0" style="stop-color:#20274B"/>
		<stop  offset="0.0903" style="stop-color:#342956;stop-opacity:0.9097"/>
		<stop  offset="0.2646" style="stop-color:#522C68;stop-opacity:0.7354"/>
		<stop  offset="0.4422" style="stop-color:#6A3077;stop-opacity:0.5578"/>
		<stop  offset="0.6223" style="stop-color:#7F3182;stop-opacity:0.3777"/>
		<stop  offset="0.8062" style="stop-color:#8B3188;stop-opacity:0.1938"/>
		<stop  offset="1" style="stop-color:#8F328A;stop-opacity:0"/>
	</linearGradient>
	<path fill="url(#SVGID_2_)" d="M12.378,13.586c0,0,1.836,1.862,13.188,2.889c2.522,0.228,4.206,0.42,5.604,1.133
		c0,0,0.848,1.798-2.478,2.076c-3.326,0.278-8.395,1.915-8.395,1.915s-6.377-0.457-6.912-0.683c-0.535-0.226-3.043-0.736-3.661-3.33
		C9.107,14.992,12.378,13.586,12.378,13.586z"/>
	
		<linearGradient id="SVGID_3_" gradientUnits="userSpaceOnUse" x1="35.9087" y1="85.0172" x2="53.8508" y2="85.0172" gradientTransform="matrix(0.9999 0.001 0.001 -0.9999 -26.3439 102.9367)">
		<stop  offset="0" style="stop-color:#8F328A;stop-opacity:0"/>
		<stop  offset="0.0011" style="stop-color:#8F328A;stop-opacity:0.0011"/>
		<stop  offset="0.2186" style="stop-color:#98388C;stop-opacity:0.2186"/>
		<stop  offset="0.4922" style="stop-color:#9D3A8E;stop-opacity:0.4922"/>
		<stop  offset="1" style="stop-color:#9F3B8E"/>
	</linearGradient>
	<path opacity="0.43" fill="url(#SVGID_3_)" enable-background="new    " d="M17.841,19.06c-6.764-0.514-6.086-1.923-6.086-1.923
		s-0.335-1.361-0.61-2.796c-0.852,0.665-1.773,1.76-1.42,3.245c0.618,2.594,3.125,3.104,3.661,3.33
		c0.535,0.226,6.912,0.683,6.912,0.683s4.051-1.308,7.287-1.784C25.172,19.535,21.69,19.353,17.841,19.06z"/>
	
		<linearGradient id="SVGID_4_" gradientUnits="userSpaceOnUse" x1="34.9014" y1="92.5298" x2="63.7198" y2="92.5298" gradientTransform="matrix(0.9999 0.001 0.001 -0.9999 -26.3439 102.9367)">
		<stop  offset="0" style="stop-color:#E8317C;stop-opacity:0"/>
		<stop  offset="0.0586" style="stop-color:#E8347B;stop-opacity:0.1172"/>
		<stop  offset="0.2565" style="stop-color:#E8397A;stop-opacity:0.513"/>
		<stop  offset="0.5" style="stop-color:#E83A79"/>
	</linearGradient>
	<path fill="url(#SVGID_4_)" d="M37.118-0.022c0,0,3.149,7.399-9.37,11.49c-13.425,4.388-17.765,8.105-13.313,9.49
		c0,0-6.708-0.548-5.687-6.804c0.602-3.687,3.599-5.018,7.262-6.432C16.009,7.724,28.32,3.95,37.118-0.022z"/>
	
		<linearGradient id="SVGID_5_" gradientUnits="userSpaceOnUse" x1="44.5142" y1="62.9672" x2="44.5142" y2="74.473" gradientTransform="matrix(0.9999 0.001 0.001 -0.9999 -26.3439 102.9367)">
		<stop  offset="0" style="stop-color:#DB205E"/>
		<stop  offset="0.5" style="stop-color:#A02265"/>
		<stop  offset="1" style="stop-color:#A02265"/>
	</linearGradient>
	<path fill="url(#SVGID_5_)" d="M20.794,28.518c0,0-5.344,4.677-0.626,11.389c0.047,0.067-0.035,0.149-0.101,0.1
		c-0.886-0.657-2.242-1.892-3.29-3.036C13.588,33.493,18.109,30.007,20.794,28.518z"/>
	
		<linearGradient id="SVGID_6_" gradientUnits="userSpaceOnUse" x1="44.5724" y1="62.9672" x2="44.5724" y2="74.473" gradientTransform="matrix(0.9999 0.001 0.001 -0.9999 -26.3439 102.9367)">
		<stop  offset="0" style="stop-color:#DB205E"/>
		<stop  offset="0.9951" style="stop-color:#35193F"/>
	</linearGradient>
	<path fill="url(#SVGID_6_)" d="M20.794,28.518c0,0-5.344,4.677-0.626,11.389c0.047,0.067-0.035,0.149-0.101,0.1
		c-0.886-0.657-2.925-2.323-3.601-3.578C14.228,32.274,18.109,30.007,20.794,28.518z"/>
	
		<linearGradient id="SVGID_7_" gradientUnits="userSpaceOnUse" x1="39.8824" y1="75.766" x2="60.1738" y2="75.766" gradientTransform="matrix(0.9999 0.001 0.001 -0.9999 -26.3439 102.9367)">
		<stop  offset="0" style="stop-color:#E8317C"/>
		<stop  offset="0.5" style="stop-color:#DB205E"/>
		<stop  offset="1" style="stop-color:#A02265"/>
	</linearGradient>
	<path fill="url(#SVGID_7_)" d="M33.816,21.868c0.698-2.798-2.898-4.383-2.898-4.383c1.824,1.968-5.548,1.134-12.461,5.085
		c-4.904,2.802-4.85,7.366-4.85,7.366l0.008,0.009c-0.134,4.112,3.162,7.028,3.162,7.028C13.581,26.033,32.506,27.018,33.816,21.868
		z"/>
	
		<linearGradient id="SVGID_8_" gradientUnits="userSpaceOnUse" x1="39.8824" y1="75.766" x2="60.2019" y2="75.766" gradientTransform="matrix(0.9999 0.001 0.001 -0.9999 -26.3439 102.9367)">
		<stop  offset="0" style="stop-color:#E8317C;stop-opacity:0"/>
		<stop  offset="0.0586" style="stop-color:#E8347B;stop-opacity:0.1172"/>
		<stop  offset="0.2565" style="stop-color:#E8397A;stop-opacity:0.513"/>
		<stop  offset="0.5" style="stop-color:#E83A79"/>
		<stop  offset="0.6043" style="stop-color:#E53978;stop-opacity:0.7915"/>
		<stop  offset="0.7133" style="stop-color:#DA3474;stop-opacity:0.5733"/>
		<stop  offset="0.8246" style="stop-color:#C72F70;stop-opacity:0.3508"/>
		<stop  offset="0.9367" style="stop-color:#B02769;stop-opacity:0.1265"/>
		<stop  offset="1" style="stop-color:#A02265;stop-opacity:0"/>
	</linearGradient>
	<path fill="url(#SVGID_8_)" d="M33.816,21.868c0.82-2.798-2.898-4.383-2.898-4.383c1.824,1.968-5.548,1.134-12.461,5.085
		c-4.904,2.802-4.85,7.366-4.85,7.366l0.008,0.009c-0.134,4.112,3.162,7.028,3.162,7.028C13.581,26.033,31.994,27.067,33.816,21.868
		z"/>
	
		<linearGradient id="SVGID_9_" gradientUnits="userSpaceOnUse" x1="36.5909" y1="69.733" x2="47.1752" y2="88.0653" gradientTransform="matrix(0.9999 0.0025 0.0025 -0.9999 -26.9454 103.5376)">
		<stop  offset="0" style="stop-color:#E8317C;stop-opacity:0"/>
		<stop  offset="0.0597" style="stop-color:#D12C75;stop-opacity:0.2294"/>
		<stop  offset="0.1429" style="stop-color:#B6266C;stop-opacity:0.5492"/>
		<stop  offset="0.2127" style="stop-color:#A62266;stop-opacity:0.8175"/>
		<stop  offset="0.2602" style="stop-color:#A02265"/>
	</linearGradient>
	<path opacity="0.25" fill="url(#SVGID_9_)" enable-background="new    " d="M37.122-0.021L37.122-0.021
		c0,0-0.497,4.468-14.852,8.842c-11.341,3.456-14.416,8.083-11.805,10.545c0.886,0.719,1.924,1.112,2.714,1.324
		c0.383,0.095,0.793,0.175,1.231,0.236c-4.45-1.392-0.104-5.103,13.327-9.471C40.261,7.383,37.122-0.021,37.122-0.021z"/>
	
		<linearGradient id="SVGID_10_" gradientUnits="userSpaceOnUse" x1="39.882" y1="75.765" x2="59.1376" y2="75.765" gradientTransform="matrix(0.9999 0.001 0.001 -0.9999 -26.3439 102.9367)">
		<stop  offset="0" style="stop-color:#E8317C;stop-opacity:0"/>
		<stop  offset="0.2294" style="stop-color:#D12C75;stop-opacity:0.2294"/>
		<stop  offset="0.5492" style="stop-color:#B6266C;stop-opacity:0.5492"/>
		<stop  offset="0.8175" style="stop-color:#A62266;stop-opacity:0.8175"/>
		<stop  offset="1" style="stop-color:#A02265"/>
	</linearGradient>
	<path fill="url(#SVGID_10_)" d="M30.888,21.61c2.564-0.83,1.933-2.452,1.867-2.605c-0.825-1.046-1.838-1.519-1.838-1.519
		c1.824,1.968-5.548,1.134-12.461,5.085c-4.904,2.802-4.85,7.366-4.85,7.366l0.008,0.009c-0.134,4.112,3.162,7.028,3.162,7.028
		C7.613,26.502,28.111,22.509,30.888,21.61z"/>
	
		<linearGradient id="SVGID_11_" gradientUnits="userSpaceOnUse" x1="40.6561" y1="75.766" x2="60.2023" y2="75.766" gradientTransform="matrix(0.9999 0.001 0.001 -0.9999 -26.3439 102.9367)">
		<stop  offset="0" style="stop-color:#E8317C;stop-opacity:0"/>
		<stop  offset="0.0103" style="stop-color:#E93F81;stop-opacity:0.0205"/>
		<stop  offset="0.0616" style="stop-color:#EE78A0;stop-opacity:0.1233"/>
		<stop  offset="0.1154" style="stop-color:#F3A1BC;stop-opacity:0.2308"/>
		<stop  offset="0.1705" style="stop-color:#F7C2D4;stop-opacity:0.3411"/>
		<stop  offset="0.2274" style="stop-color:#FAD9E4;stop-opacity:0.4548"/>
		<stop  offset="0.2865" style="stop-color:#FCEBF2;stop-opacity:0.5731"/>
		<stop  offset="0.3489" style="stop-color:#FEF6F9;stop-opacity:0.6978"/>
		<stop  offset="0.4167" style="stop-color:#FFFEFE;stop-opacity:0.8334"/>
		<stop  offset="0.5" style="stop-color:#FFFFFF"/>
		<stop  offset="0.5606" style="stop-color:#FDFCFD;stop-opacity:0.8789"/>
		<stop  offset="0.624" style="stop-color:#F8F0F5;stop-opacity:0.752"/>
		<stop  offset="0.6887" style="stop-color:#EEDEE7;stop-opacity:0.6225"/>
		<stop  offset="0.7544" style="stop-color:#E1C4D3;stop-opacity:0.4912"/>
		<stop  offset="0.8208" style="stop-color:#D2A3BA;stop-opacity:0.3584"/>
		<stop  offset="0.8878" style="stop-color:#C0799A;stop-opacity:0.2245"/>
		<stop  offset="0.9539" style="stop-color:#AE4979;stop-opacity:0.0921"/>
		<stop  offset="1" style="stop-color:#A02265;stop-opacity:0"/>
	</linearGradient>
	<path opacity="0.17" fill="url(#SVGID_11_)" enable-background="new    " d="M30.918,17.485c0,0,1.013,0.473,1.838,1.519
		c0.066,0.153,0.697,1.776-1.867,2.605c-2.778,0.899-23.43,4.473-14.111,15.362c-3.196-10.939,15.217-9.906,17.039-15.105
		C34.636,19.069,30.918,17.485,30.918,17.485z"/>
	
		<linearGradient id="SVGID_12_" gradientUnits="userSpaceOnUse" x1="25.4909" y1="92.5198" x2="53.9539" y2="92.5198" gradientTransform="matrix(0.9999 0.001 0.001 -0.9999 -26.3439 102.9367)">
		<stop  offset="0" style="stop-color:#E8317C;stop-opacity:0"/>
		<stop  offset="0.1076" style="stop-color:#D12C75;stop-opacity:0.2294"/>
		<stop  offset="0.2575" style="stop-color:#B6266C;stop-opacity:0.5492"/>
		<stop  offset="0.3833" style="stop-color:#A62266;stop-opacity:0.8175"/>
		<stop  offset="0.4689" style="stop-color:#A02265"/>
	</linearGradient>
	<path fill="url(#SVGID_12_)" d="M22.283,8.851c14.35-4.395,14.839-8.864,14.839-8.864c-7.838,3.681-21.108,7.746-21.108,7.746
		c-3.817,1.478-6.66,2.745-7.262,6.432c-1.021,6.256,5.687,6.804,5.687,6.804C6.774,19.913,7.461,13.392,22.283,8.851z"/>
</g>
</svg>
